<mxfile host="app.diagrams.net" modified="2022-07-20T12:15:07.997Z" agent="5.0 (X11; Linux x86_64) AppleWebKit/537.36 (KHTML, like Gecko) Chrome/103.0.0.0 Safari/537.36" etag="zMPuGzLH5JrK-852Aejm" version="20.0.1" type="github">
  <diagram id="C5RBs43oDa-KdzZeNtuy" name="Page-1">
    <mxGraphModel dx="1182" dy="811" grid="1" gridSize="10" guides="1" tooltips="1" connect="1" arrows="1" fold="1" page="1" pageScale="1" pageWidth="827" pageHeight="1169" math="0" shadow="0">
      <root>
        <mxCell id="WIyWlLk6GJQsqaUBKTNV-0" />
        <mxCell id="WIyWlLk6GJQsqaUBKTNV-1" parent="WIyWlLk6GJQsqaUBKTNV-0" />
        <mxCell id="A9E_tX6ic23QGpq4cj3K-45" style="edgeStyle=orthogonalEdgeStyle;rounded=0;orthogonalLoop=1;jettySize=auto;html=1;entryX=1;entryY=0.5;entryDx=0;entryDy=0;" edge="1" parent="WIyWlLk6GJQsqaUBKTNV-1" source="A9E_tX6ic23QGpq4cj3K-35" target="A9E_tX6ic23QGpq4cj3K-18">
          <mxGeometry relative="1" as="geometry" />
        </mxCell>
        <mxCell id="A9E_tX6ic23QGpq4cj3K-35" value="" style="shape=process;whiteSpace=wrap;html=1;backgroundOutline=1;" vertex="1" parent="WIyWlLk6GJQsqaUBKTNV-1">
          <mxGeometry x="450" y="470" width="250" height="210" as="geometry" />
        </mxCell>
        <mxCell id="A9E_tX6ic23QGpq4cj3K-17" style="edgeStyle=orthogonalEdgeStyle;rounded=0;orthogonalLoop=1;jettySize=auto;html=1;entryX=0.5;entryY=0;entryDx=0;entryDy=0;" edge="1" parent="WIyWlLk6GJQsqaUBKTNV-1" source="A9E_tX6ic23QGpq4cj3K-0" target="A9E_tX6ic23QGpq4cj3K-1">
          <mxGeometry relative="1" as="geometry" />
        </mxCell>
        <mxCell id="A9E_tX6ic23QGpq4cj3K-0" value="START" style="rounded=1;whiteSpace=wrap;html=1;" vertex="1" parent="WIyWlLk6GJQsqaUBKTNV-1">
          <mxGeometry x="314" y="10" width="120" height="30" as="geometry" />
        </mxCell>
        <mxCell id="A9E_tX6ic23QGpq4cj3K-5" style="edgeStyle=orthogonalEdgeStyle;rounded=0;orthogonalLoop=1;jettySize=auto;html=1;" edge="1" parent="WIyWlLk6GJQsqaUBKTNV-1" source="A9E_tX6ic23QGpq4cj3K-1" target="A9E_tX6ic23QGpq4cj3K-10">
          <mxGeometry relative="1" as="geometry">
            <Array as="points">
              <mxPoint x="560" y="110" />
            </Array>
          </mxGeometry>
        </mxCell>
        <mxCell id="A9E_tX6ic23QGpq4cj3K-15" style="edgeStyle=orthogonalEdgeStyle;rounded=0;orthogonalLoop=1;jettySize=auto;html=1;entryX=0.5;entryY=0;entryDx=0;entryDy=0;" edge="1" parent="WIyWlLk6GJQsqaUBKTNV-1" source="A9E_tX6ic23QGpq4cj3K-1" target="A9E_tX6ic23QGpq4cj3K-2">
          <mxGeometry relative="1" as="geometry" />
        </mxCell>
        <mxCell id="A9E_tX6ic23QGpq4cj3K-1" value="CHOOSE PATH" style="rhombus;whiteSpace=wrap;html=1;" vertex="1" parent="WIyWlLk6GJQsqaUBKTNV-1">
          <mxGeometry x="334" y="70" width="80" height="80" as="geometry" />
        </mxCell>
        <mxCell id="A9E_tX6ic23QGpq4cj3K-19" value="" style="edgeStyle=orthogonalEdgeStyle;rounded=0;orthogonalLoop=1;jettySize=auto;html=1;" edge="1" parent="WIyWlLk6GJQsqaUBKTNV-1" source="A9E_tX6ic23QGpq4cj3K-2" target="A9E_tX6ic23QGpq4cj3K-18">
          <mxGeometry relative="1" as="geometry" />
        </mxCell>
        <mxCell id="A9E_tX6ic23QGpq4cj3K-2" value="ENTER LOGIN CREDENTIALS" style="shape=parallelogram;perimeter=parallelogramPerimeter;whiteSpace=wrap;html=1;fixedSize=1;fillColor=#dae8fc;strokeColor=#6c8ebf;" vertex="1" parent="WIyWlLk6GJQsqaUBKTNV-1">
          <mxGeometry x="140" y="260" width="120" height="60" as="geometry" />
        </mxCell>
        <mxCell id="A9E_tX6ic23QGpq4cj3K-26" style="edgeStyle=orthogonalEdgeStyle;rounded=0;orthogonalLoop=1;jettySize=auto;html=1;" edge="1" parent="WIyWlLk6GJQsqaUBKTNV-1" source="A9E_tX6ic23QGpq4cj3K-3" target="A9E_tX6ic23QGpq4cj3K-25">
          <mxGeometry relative="1" as="geometry" />
        </mxCell>
        <mxCell id="A9E_tX6ic23QGpq4cj3K-3" value="" style="shape=parallelogram;perimeter=parallelogramPerimeter;whiteSpace=wrap;html=1;fixedSize=1;fillColor=#fff2cc;strokeColor=#d6b656;" vertex="1" parent="WIyWlLk6GJQsqaUBKTNV-1">
          <mxGeometry x="515" y="260" width="120" height="60" as="geometry" />
        </mxCell>
        <mxCell id="A9E_tX6ic23QGpq4cj3K-9" value="REGISTER" style="text;html=1;strokeColor=none;fillColor=none;align=center;verticalAlign=middle;whiteSpace=wrap;rounded=0;" vertex="1" parent="WIyWlLk6GJQsqaUBKTNV-1">
          <mxGeometry x="310" y="200" width="60" height="30" as="geometry" />
        </mxCell>
        <mxCell id="A9E_tX6ic23QGpq4cj3K-11" value="" style="edgeStyle=orthogonalEdgeStyle;rounded=0;orthogonalLoop=1;jettySize=auto;html=1;" edge="1" parent="WIyWlLk6GJQsqaUBKTNV-1" source="A9E_tX6ic23QGpq4cj3K-10" target="A9E_tX6ic23QGpq4cj3K-3">
          <mxGeometry relative="1" as="geometry" />
        </mxCell>
        <mxCell id="A9E_tX6ic23QGpq4cj3K-10" value="DECIDE SCHOOL ADMIN FORM TYPE" style="shape=process;whiteSpace=wrap;html=1;backgroundOutline=1;" vertex="1" parent="WIyWlLk6GJQsqaUBKTNV-1">
          <mxGeometry x="500" y="140" width="150" height="60" as="geometry" />
        </mxCell>
        <mxCell id="A9E_tX6ic23QGpq4cj3K-14" value="REGISTRATION FORM" style="text;html=1;strokeColor=none;fillColor=none;align=center;verticalAlign=middle;whiteSpace=wrap;rounded=0;" vertex="1" parent="WIyWlLk6GJQsqaUBKTNV-1">
          <mxGeometry x="550" y="275" width="60" height="30" as="geometry" />
        </mxCell>
        <mxCell id="A9E_tX6ic23QGpq4cj3K-16" value="LOGIN" style="text;html=1;strokeColor=none;fillColor=none;align=center;verticalAlign=middle;whiteSpace=wrap;rounded=0;" vertex="1" parent="WIyWlLk6GJQsqaUBKTNV-1">
          <mxGeometry x="240" y="160" width="60" height="30" as="geometry" />
        </mxCell>
        <mxCell id="A9E_tX6ic23QGpq4cj3K-20" style="edgeStyle=orthogonalEdgeStyle;rounded=0;orthogonalLoop=1;jettySize=auto;html=1;" edge="1" parent="WIyWlLk6GJQsqaUBKTNV-1" source="A9E_tX6ic23QGpq4cj3K-18" target="A9E_tX6ic23QGpq4cj3K-2">
          <mxGeometry relative="1" as="geometry">
            <mxPoint x="100" y="340" as="targetPoint" />
            <Array as="points">
              <mxPoint x="90" y="420" />
              <mxPoint x="90" y="290" />
            </Array>
          </mxGeometry>
        </mxCell>
        <mxCell id="A9E_tX6ic23QGpq4cj3K-22" style="edgeStyle=orthogonalEdgeStyle;rounded=0;orthogonalLoop=1;jettySize=auto;html=1;entryX=0.5;entryY=0;entryDx=0;entryDy=0;" edge="1" parent="WIyWlLk6GJQsqaUBKTNV-1" source="A9E_tX6ic23QGpq4cj3K-18" target="A9E_tX6ic23QGpq4cj3K-21">
          <mxGeometry relative="1" as="geometry" />
        </mxCell>
        <mxCell id="A9E_tX6ic23QGpq4cj3K-18" value="VALIDATE?&lt;br&gt;" style="rhombus;whiteSpace=wrap;html=1;" vertex="1" parent="WIyWlLk6GJQsqaUBKTNV-1">
          <mxGeometry x="160" y="380" width="80" height="80" as="geometry" />
        </mxCell>
        <mxCell id="A9E_tX6ic23QGpq4cj3K-24" value="" style="edgeStyle=orthogonalEdgeStyle;rounded=0;orthogonalLoop=1;jettySize=auto;html=1;" edge="1" parent="WIyWlLk6GJQsqaUBKTNV-1" source="A9E_tX6ic23QGpq4cj3K-21" target="A9E_tX6ic23QGpq4cj3K-23">
          <mxGeometry relative="1" as="geometry" />
        </mxCell>
        <mxCell id="A9E_tX6ic23QGpq4cj3K-21" value="DASHBOARD" style="swimlane;startSize=23;" vertex="1" parent="WIyWlLk6GJQsqaUBKTNV-1">
          <mxGeometry x="100" y="760" width="200" height="200" as="geometry" />
        </mxCell>
        <mxCell id="A9E_tX6ic23QGpq4cj3K-23" value="END" style="ellipse;whiteSpace=wrap;html=1;fontStyle=1;startSize=23;" vertex="1" parent="WIyWlLk6GJQsqaUBKTNV-1">
          <mxGeometry x="450" y="830" width="120" height="60" as="geometry" />
        </mxCell>
        <mxCell id="A9E_tX6ic23QGpq4cj3K-28" value="" style="edgeStyle=orthogonalEdgeStyle;rounded=0;orthogonalLoop=1;jettySize=auto;html=1;" edge="1" parent="WIyWlLk6GJQsqaUBKTNV-1" source="A9E_tX6ic23QGpq4cj3K-25" target="A9E_tX6ic23QGpq4cj3K-27">
          <mxGeometry relative="1" as="geometry" />
        </mxCell>
        <mxCell id="A9E_tX6ic23QGpq4cj3K-29" style="edgeStyle=orthogonalEdgeStyle;rounded=0;orthogonalLoop=1;jettySize=auto;html=1;entryX=0;entryY=0.5;entryDx=0;entryDy=0;" edge="1" parent="WIyWlLk6GJQsqaUBKTNV-1" source="A9E_tX6ic23QGpq4cj3K-25" target="A9E_tX6ic23QGpq4cj3K-3">
          <mxGeometry relative="1" as="geometry">
            <Array as="points">
              <mxPoint x="470" y="400" />
              <mxPoint x="470" y="290" />
            </Array>
          </mxGeometry>
        </mxCell>
        <mxCell id="A9E_tX6ic23QGpq4cj3K-25" value="VALIDATE" style="rhombus;whiteSpace=wrap;html=1;" vertex="1" parent="WIyWlLk6GJQsqaUBKTNV-1">
          <mxGeometry x="535" y="360" width="80" height="80" as="geometry" />
        </mxCell>
        <mxCell id="A9E_tX6ic23QGpq4cj3K-36" value="" style="edgeStyle=orthogonalEdgeStyle;rounded=0;orthogonalLoop=1;jettySize=auto;html=1;" edge="1" parent="WIyWlLk6GJQsqaUBKTNV-1" source="A9E_tX6ic23QGpq4cj3K-27" target="A9E_tX6ic23QGpq4cj3K-34">
          <mxGeometry relative="1" as="geometry" />
        </mxCell>
        <mxCell id="A9E_tX6ic23QGpq4cj3K-27" value="" style="shape=cylinder3;whiteSpace=wrap;html=1;boundedLbl=1;backgroundOutline=1;size=15;" vertex="1" parent="WIyWlLk6GJQsqaUBKTNV-1">
          <mxGeometry x="545" y="470" width="55" height="60" as="geometry" />
        </mxCell>
        <mxCell id="A9E_tX6ic23QGpq4cj3K-30" value="NO" style="text;html=1;strokeColor=#A50040;fillColor=#d80073;align=center;verticalAlign=middle;whiteSpace=wrap;rounded=0;fontColor=#ffffff;" vertex="1" parent="WIyWlLk6GJQsqaUBKTNV-1">
          <mxGeometry x="30" y="350" width="60" height="30" as="geometry" />
        </mxCell>
        <mxCell id="A9E_tX6ic23QGpq4cj3K-31" value="YES" style="text;html=1;strokeColor=#2D7600;fillColor=#60a917;align=center;verticalAlign=middle;whiteSpace=wrap;rounded=0;fontColor=#ffffff;" vertex="1" parent="WIyWlLk6GJQsqaUBKTNV-1">
          <mxGeometry x="190" y="460" width="60" height="30" as="geometry" />
        </mxCell>
        <mxCell id="A9E_tX6ic23QGpq4cj3K-32" value="NO" style="text;html=1;strokeColor=#A50040;fillColor=#d80073;align=center;verticalAlign=middle;whiteSpace=wrap;rounded=0;fontColor=#ffffff;" vertex="1" parent="WIyWlLk6GJQsqaUBKTNV-1">
          <mxGeometry x="400" y="330" width="60" height="30" as="geometry" />
        </mxCell>
        <mxCell id="A9E_tX6ic23QGpq4cj3K-33" value="YES" style="text;html=1;strokeColor=#2D7600;fillColor=#60a917;align=center;verticalAlign=middle;whiteSpace=wrap;rounded=0;fontColor=#ffffff;" vertex="1" parent="WIyWlLk6GJQsqaUBKTNV-1">
          <mxGeometry x="580" y="440" width="40" height="10" as="geometry" />
        </mxCell>
        <mxCell id="A9E_tX6ic23QGpq4cj3K-38" style="edgeStyle=orthogonalEdgeStyle;rounded=0;orthogonalLoop=1;jettySize=auto;html=1;" edge="1" parent="WIyWlLk6GJQsqaUBKTNV-1" source="A9E_tX6ic23QGpq4cj3K-34" target="A9E_tX6ic23QGpq4cj3K-37">
          <mxGeometry relative="1" as="geometry" />
        </mxCell>
        <mxCell id="A9E_tX6ic23QGpq4cj3K-34" value="" style="shape=note;whiteSpace=wrap;html=1;backgroundOutline=1;darkOpacity=0.05;" vertex="1" parent="WIyWlLk6GJQsqaUBKTNV-1">
          <mxGeometry x="532.5" y="562.5" width="80" height="25" as="geometry" />
        </mxCell>
        <mxCell id="A9E_tX6ic23QGpq4cj3K-37" value="" style="ellipse;whiteSpace=wrap;html=1;" vertex="1" parent="WIyWlLk6GJQsqaUBKTNV-1">
          <mxGeometry x="537.5" y="650" width="75" height="20" as="geometry" />
        </mxCell>
        <mxCell id="A9E_tX6ic23QGpq4cj3K-39" value="" style="whiteSpace=wrap;html=1;aspect=fixed;" vertex="1" parent="WIyWlLk6GJQsqaUBKTNV-1">
          <mxGeometry x="552.5" y="600" width="40" height="40" as="geometry" />
        </mxCell>
      </root>
    </mxGraphModel>
  </diagram>
</mxfile>
